<mxfile host="Electron" agent="Mozilla/5.0 (Windows NT 10.0; Win64; x64) AppleWebKit/537.36 (KHTML, like Gecko) draw.io/26.0.16 Chrome/132.0.6834.196 Electron/34.2.0 Safari/537.36" version="26.0.16">
  <diagram name="Seite-1" id="RzK8wEK28f3O77orKcb_">
    <mxGraphModel dx="1634" dy="955" grid="1" gridSize="10" guides="1" tooltips="1" connect="1" arrows="1" fold="1" page="1" pageScale="1" pageWidth="827" pageHeight="1169" math="0" shadow="0">
      <root>
        <mxCell id="0" />
        <mxCell id="1" parent="0" />
        <mxCell id="svVa4cwJItWqpXSJjGsx-1" value="Security" style="image;sketch=0;aspect=fixed;html=1;points=[];align=center;fontSize=12;image=img/lib/mscae/Key_Vaults.svg;" vertex="1" parent="1">
          <mxGeometry x="123.2" y="390" width="76.8" height="80" as="geometry" />
        </mxCell>
        <mxCell id="svVa4cwJItWqpXSJjGsx-2" value="Monitoring &amp;amp; Observability" style="editableCssRules=.*;html=1;shape=image;verticalLabelPosition=bottom;labelBackgroundColor=#ffffff;verticalAlign=top;aspect=fixed;imageAspect=0;image=data:image/svg+xml,PHN2ZyB4bWxucz0iaHR0cDovL3d3dy53My5vcmcvMjAwMC9zdmciIHhtbG5zOnY9Imh0dHBzOi8vdmVjdGEuaW8vbmFubyIgd2lkdGg9IjIwIiBoZWlnaHQ9IjEzLjUyOTk5OTczMjk3MTE5MSIgdmlld0JveD0iLTIuOTMyMDk3ODk3ODEyMDE0ZS05IC01LjI1ODAxNTA0MTgzNzk1NmUtMTUgMjAgMTMuNTI5OTk5NzMyOTcxMTkxIj4mI3hhOwk8c3R5bGUgdHlwZT0idGV4dC9jc3MiPiYjeGE7CS5zdDB7ZmlsbDojNDI4NWY0O30mI3hhOwkuc3Qxe2ZpbGw6IzY2OWRmNjt9JiN4YTsJPC9zdHlsZT4mI3hhOwk8cGF0aCBjbGFzcz0ic3QxIiBkPSJNOC44MyAxMC41OGgyLjMzdjIuNjRIOC44M3oiLz4mI3hhOwk8cGF0aCBjbGFzcz0ic3QwIiBkPSJNMTYuNDggOC42MWEuNTYuNTYgMCAwIDEtLjQtLjE3TDEyIDQuMjEgOS4yNiA3LjFhLjU3LjU3IDAgMCAxLS43Ni4wNUw2LjQyIDUuNDdsLTIuMiAyLjkyYS41Ni41NiAwIDAgMS0uNDUuMjJIMHYxLjcxYS43NS43NSAwIDAgMCAuNzQuNzVoMTguNTJhLjc1Ljc1IDAgMCAwIC43NC0uNzVWOC42MXoiLz4mI3hhOwk8cGF0aCBjbGFzcz0ic3QxIiBkPSJNMy41IDcuNWwyLjM4LTMuMTZhLjU1LjU1IDAgMCAxIC4zNy0uMjIuNjMuNjMgMCAwIDEgLjQyLjEybDIuMTIgMS43MiAyLjgtMi45NGEuNTQuNTQgMCAwIDEgLjQtLjE3aDBhLjU0LjU0IDAgMCAxIC40LjE3bDQuMzMgNC40OEgyMFYuNzRhLjc0Ljc0IDAgMCAwLS43NC0uNzRILjc0QS43NC43NCAwIDAgMCAwIC43NHY2LjgxeiIvPiYjeGE7CTxyZWN0IGNsYXNzPSJzdDAiIHg9IjYuNjciIHk9IjEyLjkyIiB3aWR0aD0iNi42NyIgaGVpZ2h0PSIuNjEiIHJ4PSIuMyIvPiYjeGE7PC9zdmc+;" vertex="1" parent="1">
          <mxGeometry x="210" y="250" width="87.14" height="61" as="geometry" />
        </mxCell>
        <mxCell id="svVa4cwJItWqpXSJjGsx-3" value="Logging" style="editableCssRules=.*;html=1;shape=image;verticalLabelPosition=bottom;labelBackgroundColor=#ffffff;verticalAlign=top;aspect=fixed;imageAspect=0;image=data:image/svg+xml,PHN2ZyB4bWxucz0iaHR0cDovL3d3dy53My5vcmcvMjAwMC9zdmciIHhtbG5zOnY9Imh0dHBzOi8vdmVjdGEuaW8vbmFubyIgd2lkdGg9IjIwIiBoZWlnaHQ9IjE5IiB2aWV3Qm94PSIwIDAgMjAgMTkiPiYjeGE7CTxzdHlsZSB0eXBlPSJ0ZXh0L2NzcyI+JiN4YTsJLnN0MHtmaWxsOiM0Mjg1ZjQ7fSYjeGE7CS5zdDF7ZmlsbDojNjY5ZGY2O30mI3hhOwkuc3Qye2ZpbGw6I2FlY2JmYTt9JiN4YTsJPC9zdHlsZT4mI3hhOwk8ZyBjbGFzcz0ic3QwIj4mI3hhOwkJPHBhdGggZD0iTTQgOWg0djJINHptLTIgN2g2djJIMnoiLz4mI3hhOwkJPHBhdGggZD0iTTQgNEgydjEyaDJ6Ii8+JiN4YTsJPC9nPiYjeGE7CTxwYXRoIGNsYXNzPSJzdDEiIGQ9Ik0yMCAxSDd2NGgxM3ptMCA3SDd2NGgxM3ptMCA3SDd2NGgxM3oiLz4mI3hhOwk8cGF0aCBjbGFzcz0ic3QyIiBkPSJNNiAwSDB2Nmg2eiIvPiYjeGE7PC9zdmc+;" vertex="1" parent="1">
          <mxGeometry x="378" y="150" width="71.58" height="68" as="geometry" />
        </mxCell>
        <mxCell id="svVa4cwJItWqpXSJjGsx-4" value="Configuration" style="image;sketch=0;aspect=fixed;html=1;points=[];align=center;fontSize=12;image=img/lib/mscae/App_Configuration.svg;" vertex="1" parent="1">
          <mxGeometry x="468.79" y="530" width="90.82" height="89" as="geometry" />
        </mxCell>
        <mxCell id="svVa4cwJItWqpXSJjGsx-5" value="Scalability" style="image;aspect=fixed;perimeter=ellipsePerimeter;html=1;align=center;shadow=0;dashed=0;fontColor=#000000;labelBackgroundColor=default;fontSize=12;spacingTop=3;image=img/lib/ibm/miscellaneous/scalable.svg;" vertex="1" parent="1">
          <mxGeometry x="630" y="390" width="75" height="75" as="geometry" />
        </mxCell>
        <mxCell id="svVa4cwJItWqpXSJjGsx-6" value="CI/CD" style="shape=mxgraph.sap.icon;labelPosition=center;verticalLabelPosition=bottom;align=center;verticalAlign=top;strokeWidth=1;strokeColor=#D5DADD;fillColor=#EDEFF0;gradientColor=#FCFCFC;gradientDirection=west;aspect=fixed;SAPIcon=SAP_Continuous_Integration_and_Delivery" vertex="1" parent="1">
          <mxGeometry x="250" y="534.5" width="80" height="80" as="geometry" />
        </mxCell>
        <mxCell id="svVa4cwJItWqpXSJjGsx-7" value="Data Versioning" style="image;aspect=fixed;html=1;points=[];align=center;fontSize=12;image=img/lib/azure2/general/Versions.svg;" vertex="1" parent="1">
          <mxGeometry x="530" y="230" width="72.33" height="70" as="geometry" />
        </mxCell>
        <mxCell id="svVa4cwJItWqpXSJjGsx-8" value="&lt;div&gt;Crosscutting&lt;/div&gt;Concepts" style="rounded=0;whiteSpace=wrap;html=1;fillColor=#fff2cc;strokeColor=#d6b656;fontStyle=1" vertex="1" parent="1">
          <mxGeometry x="358.79" y="400" width="110" height="60" as="geometry" />
        </mxCell>
        <mxCell id="svVa4cwJItWqpXSJjGsx-10" value="" style="endArrow=none;dashed=1;html=1;dashPattern=1 3;strokeWidth=2;rounded=0;exitX=0.5;exitY=0;exitDx=0;exitDy=0;" edge="1" parent="1" source="svVa4cwJItWqpXSJjGsx-8">
          <mxGeometry width="50" height="50" relative="1" as="geometry">
            <mxPoint x="390" y="510" as="sourcePoint" />
            <mxPoint x="414" y="260" as="targetPoint" />
          </mxGeometry>
        </mxCell>
        <mxCell id="svVa4cwJItWqpXSJjGsx-11" value="" style="endArrow=none;dashed=1;html=1;dashPattern=1 3;strokeWidth=2;rounded=0;exitX=1;exitY=0;exitDx=0;exitDy=0;" edge="1" parent="1" source="svVa4cwJItWqpXSJjGsx-8">
          <mxGeometry width="50" height="50" relative="1" as="geometry">
            <mxPoint x="510.21" y="507.5" as="sourcePoint" />
            <mxPoint x="560" y="330" as="targetPoint" />
          </mxGeometry>
        </mxCell>
        <mxCell id="svVa4cwJItWqpXSJjGsx-12" value="" style="endArrow=none;dashed=1;html=1;dashPattern=1 3;strokeWidth=2;rounded=0;exitX=1;exitY=0.5;exitDx=0;exitDy=0;entryX=0;entryY=0.5;entryDx=0;entryDy=0;" edge="1" parent="1" source="svVa4cwJItWqpXSJjGsx-8" target="svVa4cwJItWqpXSJjGsx-5">
          <mxGeometry width="50" height="50" relative="1" as="geometry">
            <mxPoint x="439" y="540" as="sourcePoint" />
            <mxPoint x="530" y="470" as="targetPoint" />
          </mxGeometry>
        </mxCell>
        <mxCell id="svVa4cwJItWqpXSJjGsx-14" value="" style="endArrow=none;dashed=1;html=1;dashPattern=1 3;strokeWidth=2;rounded=0;exitX=1;exitY=1;exitDx=0;exitDy=0;entryX=0.496;entryY=0.006;entryDx=0;entryDy=0;entryPerimeter=0;" edge="1" parent="1" source="svVa4cwJItWqpXSJjGsx-8" target="svVa4cwJItWqpXSJjGsx-4">
          <mxGeometry width="50" height="50" relative="1" as="geometry">
            <mxPoint x="410.21" y="537.5" as="sourcePoint" />
            <mxPoint x="531.21" y="545.5" as="targetPoint" />
          </mxGeometry>
        </mxCell>
        <mxCell id="svVa4cwJItWqpXSJjGsx-15" value="" style="endArrow=none;dashed=1;html=1;dashPattern=1 3;strokeWidth=2;rounded=0;exitX=0;exitY=1;exitDx=0;exitDy=0;entryX=0.625;entryY=0;entryDx=0;entryDy=0;entryPerimeter=0;" edge="1" parent="1" source="svVa4cwJItWqpXSJjGsx-8" target="svVa4cwJItWqpXSJjGsx-6">
          <mxGeometry width="50" height="50" relative="1" as="geometry">
            <mxPoint x="296.85" y="510" as="sourcePoint" />
            <mxPoint x="350.85" y="596" as="targetPoint" />
          </mxGeometry>
        </mxCell>
        <mxCell id="svVa4cwJItWqpXSJjGsx-17" value="" style="endArrow=none;dashed=1;html=1;dashPattern=1 3;strokeWidth=2;rounded=0;exitX=0;exitY=0.5;exitDx=0;exitDy=0;entryX=1;entryY=0.517;entryDx=0;entryDy=0;entryPerimeter=0;" edge="1" parent="1" source="svVa4cwJItWqpXSJjGsx-8" target="svVa4cwJItWqpXSJjGsx-1">
          <mxGeometry width="50" height="50" relative="1" as="geometry">
            <mxPoint x="296.85" y="430" as="sourcePoint" />
            <mxPoint x="210.85" y="515" as="targetPoint" />
          </mxGeometry>
        </mxCell>
        <mxCell id="svVa4cwJItWqpXSJjGsx-18" value="" style="endArrow=none;dashed=1;html=1;dashPattern=1 3;strokeWidth=2;rounded=0;exitX=0;exitY=0;exitDx=0;exitDy=0;" edge="1" parent="1" source="svVa4cwJItWqpXSJjGsx-8">
          <mxGeometry width="50" height="50" relative="1" as="geometry">
            <mxPoint x="200.20999999999998" y="500" as="sourcePoint" />
            <mxPoint x="250" y="340" as="targetPoint" />
          </mxGeometry>
        </mxCell>
      </root>
    </mxGraphModel>
  </diagram>
</mxfile>
